<svg viewBox="0 0 32 32" xmlns="http://www.w3.org/2000/svg" role="img" aria-label="Fuel">
  <path d="M16 30c6-5 10-10 10-16a10 10 0 1 0-20 0c0 6 4 11 10 16Z" fill="#b7791f"/>
  <circle cx="16" cy="14" r="8" fill="#fff7df"/>
  <path d="M13 8h5.4c1 0 1.8.8 1.8 1.8v11.5H11.2V9.8C11.2 8.8 12 8 13 8Z" fill="none" stroke="#5b3b13" stroke-width="1.8" stroke-linejoin="round"/>
  <path d="M13.8 11h3.8v3.6h-3.8V11Z" fill="#f5c15b"/>
  <path d="M20.2 11.4 23 14v4.2c0 1.3.7 2.1 1.7 2.1s1.6-.8 1.6-2.1v-4.9" fill="none" stroke="#5b3b13" stroke-width="1.8" stroke-linecap="round" stroke-linejoin="round"/>
</svg>
